<?xml version="1.0" encoding="UTF-8" standalone="no"?>
<!DOCTYPE svg PUBLIC "-//W3C//DTD SVG 1.1//EN" "http://www.w3.org/Graphics/SVG/1.1/DTD/svg11.dtd">
<svg width="100%" height="100%" viewBox="0 0 1750 1730" version="1.1" xmlns="http://www.w3.org/2000/svg" xmlns:xlink="http://www.w3.org/1999/xlink" xml:space="preserve" xmlns:serif="http://www.serif.com/" style="fill-rule:evenodd;clip-rule:evenodd;stroke-linejoin:round;stroke-miterlimit:2;">
    <g transform="matrix(32.2053,0,0,31.5152,-269.787,-305.781)">
        <g>
            <path d="M41.526,20.722L29.801,22.978C29.532,23.03 29.275,22.856 29.219,22.594C28.495,19.166 25.231,16.97 21.784,17.592C21.687,17.611 21.592,17.597 21.508,17.559C21.356,17.501 21.239,17.367 21.206,17.196L21.205,17.19C21.153,16.922 21.333,16.665 21.6,16.613L33.248,14.37C37.2,13.61 41.085,16.194 41.918,20.127L41.921,20.139C41.946,20.265 41.916,20.398 41.844,20.508C41.77,20.617 41.657,20.696 41.526,20.722Z" style="fill:rgb(214,61,50);fill-rule:nonzero;"/>
            <path d="M41.229,20.778L29.801,22.978C29.532,23.03 29.275,22.856 29.219,22.594C28.495,19.166 25.231,16.97 21.784,17.592C21.687,17.611 21.592,17.597 21.508,17.559L32.657,15.412C36.467,14.679 40.228,17.064 41.229,20.778Z" style="fill:rgb(198,46,39);fill-rule:nonzero;"/>
            <path d="M51.655,30.851L49.399,42.575C49.347,42.845 49.52,43.101 49.784,43.158C53.21,43.882 55.407,47.146 54.784,50.593C54.766,50.689 54.779,50.784 54.817,50.868C54.876,51.019 55.009,51.138 55.18,51.171L55.186,51.172C55.456,51.224 55.711,51.045 55.764,50.776L58.006,39.129C58.766,35.177 56.182,31.291 52.251,30.458L52.239,30.456C52.112,30.43 51.979,30.461 51.87,30.532C51.759,30.606 51.68,30.72 51.655,30.851Z" style="fill:rgb(214,61,50);fill-rule:nonzero;"/>
            <path d="M51.598,31.148L49.399,42.575C49.347,42.845 49.52,43.101 49.784,43.158C53.21,43.882 55.407,47.146 54.784,50.593C54.766,50.689 54.779,50.784 54.817,50.868L56.963,39.72C57.698,35.909 55.312,32.148 51.598,31.148Z" style="fill:rgb(198,46,39);fill-rule:nonzero;"/>
            <path d="M37.934,42.44C36.805,41.31 33.569,42.591 29.774,45.408C30.032,44.448 30.017,43.682 29.67,43.204C29.191,42.856 28.426,42.843 27.465,43.098C30.282,39.305 31.563,36.068 30.434,34.939C28.817,33.323 22.871,36.643 17.157,42.357C11.441,48.073 9.737,55.636 9.737,55.636C9.737,55.636 11.313,55.275 13.559,54.351C10.758,58.418 9.54,62.459 9.221,63.654C10.415,63.334 14.455,62.115 18.522,59.313C17.598,61.56 17.237,63.137 17.237,63.137C17.237,63.137 24.799,61.431 30.515,55.716C36.229,50.002 39.551,44.057 37.934,42.44Z" style="fill:rgb(242,108,98);fill-rule:nonzero;"/>
            <path d="M43.364,37.01C42.235,35.881 38.999,37.161 35.206,39.977C35.461,39.017 35.448,38.252 35.1,37.774C34.622,37.426 33.856,37.412 32.896,37.668C35.711,33.875 36.993,30.638 35.864,29.509C34.247,27.892 28.301,31.213 22.586,36.928C16.872,42.642 15.168,50.205 15.168,50.205C15.168,50.205 16.744,49.845 18.991,48.921C16.188,52.988 14.969,57.028 14.651,58.223C15.845,57.904 19.884,56.685 23.953,53.883C23.029,56.13 22.668,57.706 22.668,57.706C22.668,57.706 30.229,56.002 35.946,50.286C41.66,44.571 44.981,38.627 43.364,37.01Z" style="fill:rgb(245,140,128);fill-rule:nonzero;"/>
            <path d="M49.266,43.749L36.085,56.93L15.561,36.407L28.743,23.225C34.586,17.381 42.122,14.244 48.522,12.56C55.788,10.655 61.602,10.62 61.86,10.624L61.872,10.619L61.868,10.632C61.872,10.89 61.832,16.716 59.924,23.985C58.239,30.387 55.107,37.908 49.266,43.749Z" style="fill:rgb(58,194,231);fill-rule:nonzero;"/>
            <path d="M43.897,38.379L30.715,51.56L20.931,41.776L34.113,28.595C39.631,23.076 45.631,18.949 50.629,16.046C56.895,12.416 61.602,10.715 61.86,10.624L61.872,10.619L61.868,10.632C61.776,10.89 60.075,15.596 56.442,21.865C53.546,26.865 49.416,32.86 43.897,38.379Z" style="fill:rgb(74,200,240);fill-rule:nonzero;"/>
            <path d="M35.346,54.098C34.295,55.15 32.59,55.15 31.538,54.098L18.001,40.561C16.95,39.51 16.95,37.805 18.001,36.753C19.053,35.701 20.759,35.7 21.811,36.752L35.348,50.289C36.399,51.341 36.399,53.047 35.346,54.098Z" style="fill:rgb(180,197,198);fill-rule:nonzero;"/>
            <path d="M14.649,43.724C14.276,43.746 13.926,43.69 13.617,43.537C13.432,43.44 13.266,43.323 13.114,43.171C11.426,41.483 11.991,36.414 13.024,34.32L18.415,23.352C19.537,21.079 22.297,20.136 24.578,21.265C25.045,21.496 25.453,21.791 25.801,22.14C26.073,22.411 26.311,22.716 26.497,23.049C27.271,24.341 27.389,25.972 26.672,27.422L21.282,38.389C20.309,40.353 16.997,43.598 14.649,43.724Z" style="fill:rgb(198,46,39);fill-rule:nonzero;"/>
            <path d="M14.649,43.724C14.367,43.656 14.119,43.531 13.905,43.362L13.768,43.239C12.024,41.495 13.809,36.166 15.372,34.242L23.061,24.748C23.94,23.664 25.204,23.089 26.497,23.049C27.271,24.341 27.389,25.972 26.672,27.422L21.282,38.389C20.309,40.353 16.997,43.598 14.649,43.724Z" style="fill:rgb(214,61,50);fill-rule:nonzero;"/>
            <path d="M28.013,57.088C27.991,57.461 28.046,57.81 28.2,58.12C28.296,58.305 28.414,58.471 28.567,58.623C30.253,60.31 35.324,59.746 37.417,58.714L48.384,53.323C50.658,52.2 51.601,49.439 50.472,47.16C50.241,46.691 49.948,46.285 49.596,45.934C49.327,45.665 49.022,45.427 48.688,45.24C47.397,44.467 45.764,44.348 44.315,45.064L33.348,50.455C31.382,51.427 28.138,54.74 28.013,57.088Z" style="fill:rgb(198,46,39);fill-rule:nonzero;"/>
            <path d="M28.013,57.088C28.081,57.37 28.206,57.618 28.376,57.833L28.499,57.968C30.243,59.712 35.573,57.929 37.496,56.366L46.99,48.677C48.073,47.798 48.649,46.533 48.688,45.24C47.397,44.467 45.764,44.348 44.315,45.064L33.348,50.455C31.382,51.427 28.138,54.74 28.013,57.088Z" style="fill:rgb(214,61,50);fill-rule:nonzero;"/>
            <path d="M26.345,51.941L26.29,51.998C24.815,53.472 20.639,55.445 19.171,54.036L19.012,53.855C17.838,52.274 19.6,48.211 20.971,46.783L27.813,39.648L27.864,39.597C29.292,38.17 31.606,38.136 33.079,39.54L33.197,39.671C34.557,41.099 34.574,43.362 33.186,44.807L26.345,51.941Z" style="fill:rgb(198,46,39);fill-rule:nonzero;"/>
            <path d="M26.345,51.941L26.29,51.998C24.815,53.472 20.639,55.445 19.171,54.036L19.012,53.855L33.197,39.671C34.557,41.099 34.574,43.362 33.186,44.807L26.345,51.941Z" style="fill:rgb(214,61,50);fill-rule:nonzero;"/>
            <path d="M47.715,24.775C45.313,22.373 41.403,22.374 39.002,24.776C36.599,27.179 36.598,31.088 39.001,33.49C41.404,35.893 45.313,35.892 47.715,33.49C50.118,31.088 50.119,27.179 47.715,24.775ZM37.065,35.426C33.594,31.955 33.596,26.31 37.066,22.841C40.535,19.372 46.181,19.368 49.652,22.839C53.124,26.31 53.12,31.957 49.651,35.426C46.181,38.895 40.537,38.896 37.065,35.426Z" style="fill:rgb(198,46,39);fill-rule:nonzero;"/>
            <path d="M48.2,33.974C45.526,36.648 41.192,36.647 38.518,33.973C35.843,31.299 35.843,26.965 38.516,24.291C41.192,21.616 45.525,21.617 48.2,24.291C50.874,26.966 50.876,31.3 48.2,33.974Z" style="fill:rgb(213,230,230);fill-rule:nonzero;"/>
            <path d="M47.788,30.363C46.905,31.246 45.471,31.246 44.586,30.36C43.704,29.478 43.703,28.044 44.585,27.161C45.469,26.276 46.903,26.278 47.786,27.16C48.67,28.046 48.672,29.478 47.788,30.363Z" style="fill:white;fill-rule:nonzero;"/>
            <path d="M59.924,23.985C58.761,23.419 57.59,22.709 56.442,21.865C55.374,21.093 54.331,20.201 53.331,19.201C52.319,18.189 51.415,17.126 50.629,16.046C49.79,14.894 49.081,13.722 48.522,12.56C55.788,10.655 61.602,10.62 61.86,10.624L61.872,10.619L61.868,10.632C61.872,10.89 61.832,16.716 59.924,23.985Z" style="fill:rgb(214,61,50);fill-rule:nonzero;"/>
        </g>
    </g>
</svg>
